<?xml version="1.0" encoding="UTF-8" standalone="no"?>
<!-- Generator: Adobe Illustrator 24.0.3, SVG Export Plug-In . SVG Version: 6.00 Build 0)  -->

<svg
   xmlns:dc="http://purl.org/dc/elements/1.1/"
   xmlns:cc="http://creativecommons.org/ns#"
   xmlns:rdf="http://www.w3.org/1999/02/22-rdf-syntax-ns#"
   xmlns:svg="http://www.w3.org/2000/svg"
   xmlns="http://www.w3.org/2000/svg"
   xmlns:sodipodi="http://sodipodi.sourceforge.net/DTD/sodipodi-0.dtd"
   xmlns:inkscape="http://www.inkscape.org/namespaces/inkscape"
   version="1.1"
   id="Calque_1"
   x="0px"
   y="0px"
   viewBox="0 0 467.37864 157.65737"
   xml:space="preserve"
   sodipodi:docname="zelros.svg"
   width="467.37863"
   height="157.65738"
   inkscape:version="0.92.4 (5da689c313, 2019-01-14)"><metadata
   id="metadata18"><rdf:RDF><cc:Work
       rdf:about=""><dc:format>image/svg+xml</dc:format><dc:type
         rdf:resource="http://purl.org/dc/dcmitype/StillImage" /><dc:title></dc:title></cc:Work></rdf:RDF></metadata><defs
   id="defs16" /><sodipodi:namedview
   pagecolor="#ffffff"
   bordercolor="#666666"
   borderopacity="1"
   objecttolerance="10"
   gridtolerance="10"
   guidetolerance="10"
   inkscape:pageopacity="0"
   inkscape:pageshadow="2"
   inkscape:window-width="2787"
   inkscape:window-height="1586"
   id="namedview14"
   showgrid="false"
   fit-margin-top="0"
   fit-margin-left="0"
   fit-margin-right="0"
   fit-margin-bottom="0"
   inkscape:zoom="0.28031832"
   inkscape:cx="232.52862"
   inkscape:cy="67.049988"
   inkscape:window-x="-11"
   inkscape:window-y="-11"
   inkscape:window-maximized="1"
   inkscape:current-layer="Calque_1" />
<style
   type="text/css"
   id="style2">
	.st0{fill:#EB5B27;}
	.st1{fill:#31373D;}
</style>
<g
   id="XMLID_2_"
   transform="translate(-65.121376,-330.34262)">
	<path
   id="XMLID_3_"
   class="st0"
   d="m 128.2,488 c -18.4,0 -39.5,-6.1 -61,-24.6 -2.5,-2.1 -2.8,-5.9 -0.6,-8.4 2.2,-2.5 5.9,-2.8 8.4,-0.6 45.4,39.2 87.3,16.1 101.6,5.9 l -14.2,-13.5 c -41.2,22.2 -65.6,-0.7 -66.7,-1.7 -1.1,-1.1 -1.8,-2.6 -1.8,-4.2 0,-1.6 0.6,-3.1 1.7,-4.3 l 58.1,-58.5 c -22.7,-12.3 -50.7,7.4 -51,7.7 -2.5,1.8 -5.9,1.4 -7.9,-0.9 l -23.4,-26 c -1.2,-1.3 -1.7,-3.2 -1.4,-4.9 0.3,-1.8 1.4,-3.3 2.9,-4.2 78.3,-44.5 119.8,1.2 120.2,1.6 2.2,2.5 1.9,6.2 -0.5,8.4 -2.5,2.2 -6.2,1.9 -8.4,-0.5 -1.4,-1.6 -33.8,-36.3 -98.9,-2.7 l 15,16.7 c 11.4,-6.7 41.7,-21.1 66.5,-0.6 1.3,1.1 2.1,2.6 2.2,4.3 0.1,1.7 -0.5,3.3 -1.7,4.5 L 109.1,440 c 8.1,4.3 25.6,9.5 51.1,-5.7 2.3,-1.4 5.2,-1 7.1,0.8 l 22.4,21.3 c 1.2,1.1 1.9,2.7 1.9,4.4 0,1.7 -0.7,3.2 -2,4.4 -0.3,0.3 -26,22.8 -61.4,22.8 z"
   inkscape:connector-curvature="0"
   style="fill:#eb5b27" />
</g>
<g
   id="XMLID_4_"
   transform="translate(-65.121376,-330.34262)">
	<path
   id="XMLID_5_"
   class="st1"
   d="m 219.7,428.7 27.6,-39.2 C 249.8,386 252,384 252,384 v -0.2 c 0,0 -1.8,0.2 -4.7,0.2 h -14.9 c -1.2,0 -1.9,0.7 -1.9,1.9 v 3.7 h -10.3 v -9.4 c 0,-4.1 1.7,-5.9 5.9,-5.9 H 266 v 7.1 l -27.6,39.2 c -2.5,3.6 -4.7,5.5 -4.7,5.5 v 0.2 c 0,0 1.8,-0.2 4.7,-0.2 h 16.8 c 1.2,0 1.9,-0.7 1.9,-1.9 v -3.7 h 10.2 v 9.4 c 0,4.2 -1.7,5.9 -5.9,5.9 h -41.8 v -7.1 z"
   inkscape:connector-curvature="0"
   style="fill:#31373d" />
	<path
   id="XMLID_7_"
   class="st1"
   d="m 277.7,384.1 h -5.6 v -9.6 h 37.2 c 4.1,0 5.9,1.8 5.9,5.9 v 9.4 H 304.9 V 386 c 0,-1.2 -0.7,-1.9 -1.9,-1.9 h -13.9 v 16.1 H 309 v 9.6 h -19.9 v 14.6 c 0,1.2 0.7,1.9 1.9,1.9 h 14.2 c 1.2,0 1.9,-0.7 1.9,-1.9 v -3.7 h 10.3 v 9.4 c 0,4.2 -1.8,5.9 -5.9,5.9 h -27.9 c -4.2,0 -5.9,-1.7 -5.9,-5.9 z"
   inkscape:connector-curvature="0"
   style="fill:#31373d" />
	<path
   id="XMLID_9_"
   class="st1"
   d="m 327.8,386 c 0,-1.2 -0.7,-1.9 -1.9,-1.9 h -3.7 v -9.6 h 11.1 c 4.2,0 5.9,1.8 5.9,5.9 v 44.1 c 0,1.2 0.7,1.9 1.9,1.9 h 13.4 c 1.2,0 1.9,-0.7 1.9,-1.9 v -3.7 h 10.3 v 9.4 c 0,4.2 -1.7,5.9 -5.9,5.9 h -27.1 c -4.2,0 -5.9,-1.7 -5.9,-5.9 z"
   inkscape:connector-curvature="0"
   style="fill:#31373d" />
	<path
   id="XMLID_11_"
   class="st1"
   d="m 373.4,384.1 h -5.6 v -9.6 h 27.5 c 11.3,0 19.1,6.9 19.1,18.5 0,11.1 -7.6,15.7 -10.2,16.2 v 0.2 c 0,0 1.9,0.9 3,3.1 l 6,11.9 c 1,1.8 2.4,2 4.3,2 h 1.1 v 9.6 h -6 c -4.6,0 -6.6,-0.7 -8.6,-4.6 l -7.9,-15.5 c -1.3,-2.4 -2.6,-2.9 -5.8,-2.9 h -5.7 v 23 h -11.3 v -51.9 z m 20.4,19.2 c 5.7,0 9.1,-3.6 9.1,-9.7 0,-6.1 -3.4,-9.5 -8.9,-9.5 h -9.2 v 19.2 z"
   inkscape:connector-curvature="0"
   style="fill:#31373d" />
	<path
   id="XMLID_14_"
   class="st1"
   d="m 453.7,373.4 c 18.1,0 31.8,13.8 31.8,31.4 0,18.1 -13.7,32.2 -31.8,32.2 -18.1,0 -31.8,-14.1 -31.8,-32.2 0,-17.6 13.7,-31.4 31.8,-31.4 z m 0,53 c 11.1,0 20,-9.4 20,-21.7 0,-11.8 -8.9,-20.8 -20,-20.8 -11.1,0 -20,9 -20,20.8 0,12.4 8.9,21.7 20,21.7 z"
   inkscape:connector-curvature="0"
   style="fill:#31373d" />
	<path
   id="XMLID_17_"
   class="st1"
   d="m 497.3,419.5 c 0,0 6.3,7.3 14.9,7.3 4.7,0 8.8,-2.5 8.8,-7.3 0,-10.5 -28.9,-9.6 -28.9,-28.8 0,-10 8.7,-17.3 20.5,-17.3 7.2,0 18.3,3.4 18.3,12.1 v 5.7 h -10.2 v -2.8 c 0,-2.9 -4.1,-4.8 -8.1,-4.8 -5.2,0 -9,2.7 -9,6.6 0,10.5 28.9,8.4 28.9,28.6 0,9.8 -7.5,18.1 -20.4,18.1 -13.6,0 -21.1,-9.5 -21.1,-9.5 z"
   inkscape:connector-curvature="0"
   style="fill:#31373d" />
</g>
</svg>
